<svg xmlns="http://www.w3.org/2000/svg" viewBox="0 0 1600 1000" width="1600" height="1000">
  <defs>
    <linearGradient id="g" x1="0" y1="0" x2="0" y2="1">
      <stop offset="0%" stop-color="#161616"/>
      <stop offset="100%" stop-color="#020202"/>
    </linearGradient>
  </defs>
  <rect width="1600" height="1000" fill="url(#g)"/>
  <!-- acoustic tiles -->
  <g fill="#0d0d0d" stroke="#1e1e1e">
    <rect x="60" y="60" width="120" height="120"/>
    <rect x="200" y="60" width="120" height="120"/>
    <rect x="340" y="60" width="120" height="120"/>
    <rect x="1140" y="60" width="120" height="120"/>
    <rect x="1280" y="60" width="120" height="120"/>
    <rect x="1420" y="60" width="120" height="120"/>
    <rect x="60" y="200" width="120" height="120"/>
    <rect x="1420" y="200" width="120" height="120"/>
  </g>
  <!-- table -->
  <rect x="360" y="620" width="880" height="220" fill="#0a0a0a" stroke="#262626"/>
  <!-- mic 1 -->
  <line x1="620" y1="620" x2="620" y2="380" stroke="#2b2b2b" stroke-width="6"/>
  <rect x="580" y="330" width="80" height="90" rx="16" fill="#f4efe6"/>
  <rect x="588" y="342" width="64" height="14" fill="#1a1a1a"/>
  <rect x="588" y="362" width="64" height="14" fill="#1a1a1a"/>
  <rect x="588" y="382" width="64" height="14" fill="#1a1a1a"/>
  <!-- mic 2 -->
  <line x1="980" y1="620" x2="980" y2="380" stroke="#2b2b2b" stroke-width="6"/>
  <rect x="940" y="330" width="80" height="90" rx="16" fill="#f4efe6"/>
  <rect x="948" y="342" width="64" height="14" fill="#1a1a1a"/>
  <rect x="948" y="362" width="64" height="14" fill="#1a1a1a"/>
  <rect x="948" y="382" width="64" height="14" fill="#1a1a1a"/>
  <!-- on air light -->
  <rect x="700" y="470" width="200" height="60" fill="#3a1010" stroke="#5a1a1a"/>
  <text x="800" y="512" text-anchor="middle" font-family="Georgia, serif" font-size="30" fill="#d9c9a3">ON AIR</text>
  <text x="80" y="940" font-family="Georgia, serif" font-size="42" fill="#ffffff" opacity="0.85">Studio D · Podcast &amp; Voice</text>
</svg>
