<svg xmlns="http://www.w3.org/2000/svg" viewBox="0 0 1600 1000" width="1600" height="1000">
  <defs>
    <linearGradient id="g" x1="0" y1="0" x2="1" y2="1">
      <stop offset="0%" stop-color="#0f0f0f"/>
      <stop offset="100%" stop-color="#020202"/>
    </linearGradient>
  </defs>
  <rect width="1600" height="1000" fill="url(#g)"/>
  <!-- monitor -->
  <rect x="440" y="220" width="720" height="420" fill="#050505" stroke="#2b2b2b" stroke-width="4"/>
  <rect x="460" y="240" width="680" height="380" fill="#0b0b0b"/>
  <!-- waveform -->
  <g fill="#d9c9a3">
    <rect x="520" y="440" width="6" height="60"/>
    <rect x="536" y="420" width="6" height="100"/>
    <rect x="552" y="460" width="6" height="30"/>
    <rect x="568" y="400" width="6" height="140"/>
    <rect x="584" y="430" width="6" height="80"/>
    <rect x="600" y="380" width="6" height="180"/>
    <rect x="616" y="420" width="6" height="100"/>
    <rect x="632" y="440" width="6" height="60"/>
    <rect x="648" y="410" width="6" height="120"/>
    <rect x="664" y="440" width="6" height="60"/>
    <rect x="680" y="370" width="6" height="200"/>
    <rect x="696" y="430" width="6" height="80"/>
    <rect x="712" y="420" width="6" height="100"/>
    <rect x="728" y="450" width="6" height="40"/>
    <rect x="744" y="400" width="6" height="140"/>
    <rect x="760" y="430" width="6" height="80"/>
    <rect x="776" y="410" width="6" height="120"/>
    <rect x="792" y="440" width="6" height="60"/>
    <rect x="808" y="390" width="6" height="160"/>
    <rect x="824" y="420" width="6" height="100"/>
    <rect x="840" y="450" width="6" height="40"/>
    <rect x="856" y="410" width="6" height="120"/>
    <rect x="872" y="430" width="6" height="80"/>
    <rect x="888" y="400" width="6" height="140"/>
    <rect x="904" y="420" width="6" height="100"/>
    <rect x="920" y="440" width="6" height="60"/>
    <rect x="936" y="380" width="6" height="180"/>
    <rect x="952" y="430" width="6" height="80"/>
    <rect x="968" y="450" width="6" height="40"/>
    <rect x="984" y="410" width="6" height="120"/>
    <rect x="1000" y="430" width="6" height="80"/>
    <rect x="1016" y="450" width="6" height="40"/>
    <rect x="1032" y="420" width="6" height="100"/>
    <rect x="1048" y="440" width="6" height="60"/>
    <rect x="1064" y="410" width="6" height="120"/>
    <rect x="1080" y="430" width="6" height="80"/>
    <rect x="1096" y="450" width="6" height="40"/>
  </g>
  <!-- desk -->
  <rect x="380" y="720" width="840" height="180" fill="#0a0a0a" stroke="#242424"/>
  <circle cx="560" cy="810" r="34" fill="#161616" stroke="#3a3a3a"/>
  <circle cx="660" cy="810" r="34" fill="#161616" stroke="#3a3a3a"/>
  <circle cx="760" cy="810" r="34" fill="#161616" stroke="#3a3a3a"/>
  <circle cx="860" cy="810" r="34" fill="#161616" stroke="#3a3a3a"/>
  <circle cx="960" cy="810" r="34" fill="#161616" stroke="#3a3a3a"/>
  <circle cx="1060" cy="810" r="34" fill="#161616" stroke="#3a3a3a"/>
  <text x="80" y="940" font-family="Georgia, serif" font-size="42" fill="#ffffff" opacity="0.85">Studio C · Colour &amp; Edit Suite</text>
</svg>
