<svg xmlns="http://www.w3.org/2000/svg" viewBox="0 0 1600 1000" width="1600" height="1000">
  <defs>
    <linearGradient id="g" x1="0" y1="0" x2="1" y2="1">
      <stop offset="0%" stop-color="#181818"/>
      <stop offset="100%" stop-color="#020202"/>
    </linearGradient>
  </defs>
  <rect width="1600" height="1000" fill="url(#g)"/>
  <!-- cyc curve -->
  <path d="M0 240 Q800 120 1600 240 L1600 780 L0 780 Z" fill="#0d0d0d"/>
  <path d="M0 240 Q800 120 1600 240" fill="none" stroke="#1f1f1f" stroke-width="2"/>
  <!-- light beam -->
  <path d="M300 60 L440 60 L620 780 L520 780 Z" fill="rgba(255,255,255,0.06)"/>
  <path d="M1300 60 L1160 60 L980 780 L1080 780 Z" fill="rgba(255,255,255,0.05)"/>
  <!-- floor line -->
  <line x1="0" y1="780" x2="1600" y2="780" stroke="#242424" stroke-width="2"/>
  <!-- camera silhouette -->
  <rect x="720" y="580" width="160" height="90" rx="4" fill="#050505" stroke="#2b2b2b"/>
  <circle cx="900" cy="625" r="34" fill="#050505" stroke="#2b2b2b"/>
  <rect x="740" y="670" width="20" height="80" fill="#0a0a0a" stroke="#2b2b2b"/>
  <rect x="840" y="670" width="20" height="80" fill="#0a0a0a" stroke="#2b2b2b"/>
  <text x="80" y="940" font-family="Georgia, serif" font-size="42" fill="#ffffff" opacity="0.85">Studio A · Cinematic Soundstage</text>
</svg>
